@startuml Domain_Model

class Templates{
    +fillTheTemplate()
}

class Dictionary{
    +getToken()
}

class Analyzer{
    +analizeSentence()
}

class Moderator{
    +checkToxicity()
}


User --> Sentence : immette
Sentence --> Analyzer: analized by
Sentence --> Generator: generated by
'Generator --> Sentence
Sentence --> Token: composed by
Sentence --> Moderator: checked by
Generator --> Template: choose
Template --> Templates: managed by
Generator --> Dictionary: take missing token from
Dictionary --> Token: list of
Analyzer --> Token: breaks down into token

Name --|> Token
Adjective --|> Token
Verb --|> Token






@enduml